<?xml version="1.0" encoding="UTF-8" standalone="no"?>
<!DOCTYPE svg PUBLIC "-//W3C//DTD SVG 1.1//EN"
 "http://www.w3.org/Graphics/SVG/1.1/DTD/svg11.dtd">
<!-- Generated by graphviz version 2.40.1 (20161225.0304)
 -->
<!-- Title: G Pages: 1 -->
<svg width="290pt" height="324pt"
 viewBox="0.00 0.00 289.82 323.63" xmlns="http://www.w3.org/2000/svg" xmlns:xlink="http://www.w3.org/1999/xlink">
<g id="graph0" class="graph" transform="scale(1 1) rotate(0) translate(4 319.6274)">
<title>G</title>
<polygon fill="#ffffff" stroke="transparent" points="-4,4 -4,-319.6274 285.8241,-319.6274 285.8241,4 -4,4"/>
<!-- A0 -->
<g id="node1" class="node">
<title>A0</title>
<g transform="translate(43.452,-159.6274)" style="fill:none;stroke:black;stroke-width:1px"><circle cx="0" cy="-20" r="7.5" />
                <line x1="0" y1="-12.5" x2="0" y2="5" />
                <line x1="-15" y1="-5" x2="15" y2="-5" />
                <line x1="0" y1="5" x2="-15" y2="17" />
                <line x1="0" y1="5" x2="15" y2="17" /></g>
<text text-anchor="middle" x="43.452" y="-134.6274" font-family="Helvetica,sans-Serif" font-size="10.00" fill="#000000">Admin</text>
</g>
<!-- A1 -->
<g id="node2" class="node">
<title>A1</title>
<ellipse fill="none" stroke="#000000" cx="209.3641" cy="-297.6274" rx="50.6692" ry="18"/>
<text text-anchor="middle" x="209.3641" y="-294.6274" font-family="Helvetica,sans-Serif" font-size="10.00" fill="#000000">Delete users</text>
</g>
<!-- A0&#45;&gt;A1 -->
<g id="edge1" class="edge">
<title>A0&#45;&gt;A1</title>
<path fill="none" stroke="#000000" d="M67.3593,-198.6349C84.3835,-221.8967 109.1065,-251.3196 136.904,-270.6274 146.4966,-277.2903 157.9379,-282.5429 168.8635,-286.5742"/>
</g>
<!-- A2 -->
<g id="node3" class="node">
<title>A2</title>
<ellipse fill="none" stroke="#000000" cx="209.3641" cy="-243.6274" rx="56.0209" ry="18"/>
<text text-anchor="middle" x="209.3641" y="-240.6274" font-family="Helvetica,sans-Serif" font-size="10.00" fill="#000000">Delete reviews</text>
</g>
<!-- A0&#45;&gt;A2 -->
<g id="edge2" class="edge">
<title>A0&#45;&gt;A2</title>
<path fill="none" stroke="#000000" d="M87.321,-190.0013C102.7039,-199.0524 120.2922,-208.8004 136.904,-216.6274 147.591,-221.6628 159.4928,-226.4268 170.5115,-230.511"/>
</g>
<!-- A3 -->
<g id="node4" class="node">
<title>A3</title>
<ellipse fill="none" stroke="#000000" cx="209.3641" cy="-189.6274" rx="63.7276" ry="18"/>
<text text-anchor="middle" x="209.3641" y="-186.6274" font-family="Helvetica,sans-Serif" font-size="10.00" fill="#000000">Delete comments</text>
</g>
<!-- A0&#45;&gt;A3 -->
<g id="edge3" class="edge">
<title>A0&#45;&gt;A3</title>
<path fill="none" stroke="#000000" d="M87.0434,-169.7213C107.5895,-173.0649 132.3295,-177.0911 154.1682,-180.645"/>
</g>
<!-- A4 -->
<g id="node5" class="node">
<title>A4</title>
<ellipse fill="none" stroke="#000000" cx="209.3641" cy="-135.6274" rx="70.1102" ry="18"/>
<text text-anchor="middle" x="209.3641" y="-132.6274" font-family="Helvetica,sans-Serif" font-size="10.00" fill="#000000">Manage restaurants</text>
</g>
<!-- A0&#45;&gt;A4 -->
<g id="edge4" class="edge">
<title>A0&#45;&gt;A4</title>
<path fill="none" stroke="#000000" d="M87.0434,-155.5335C106.2453,-152.4086 129.1104,-148.6876 149.8468,-145.3131"/>
</g>
<!-- A5 -->
<g id="node6" class="node">
<title>A5</title>
<ellipse fill="none" stroke="#000000" cx="209.3641" cy="-81.6274" rx="59.7287" ry="18"/>
<text text-anchor="middle" x="209.3641" y="-78.6274" font-family="Helvetica,sans-Serif" font-size="10.00" fill="#000000">Update the map</text>
</g>
<!-- A0&#45;&gt;A5 -->
<g id="edge5" class="edge">
<title>A0&#45;&gt;A5</title>
<path fill="none" stroke="#000000" d="M87.321,-135.2535C102.7039,-126.2024 120.2922,-116.4545 136.904,-108.6274 147.2266,-103.7636 158.6827,-99.1531 169.3816,-95.1639"/>
</g>
<!-- A6 -->
<g id="node7" class="node">
<title>A6</title>
<ellipse fill="none" stroke="#000000" cx="209.3641" cy="-22.6274" rx="72.4201" ry="22.7556"/>
<text text-anchor="middle" x="209.3641" y="-25.6274" font-family="Helvetica,sans-Serif" font-size="10.00" fill="#000000">Update top rated</text>
<text text-anchor="middle" x="209.3641" y="-13.6274" font-family="Helvetica,sans-Serif" font-size="10.00" fill="#000000">restaurants</text>
</g>
<!-- A0&#45;&gt;A6 -->
<g id="edge6" class="edge">
<title>A0&#45;&gt;A6</title>
<path fill="none" stroke="#000000" d="M68.3101,-126.3904C85.4727,-103.4737 109.989,-74.5281 136.904,-54.6274 144.5338,-48.986 153.3146,-44.061 162.0718,-39.876"/>
</g>
</g>
</svg>
