<?xml version="1.0" encoding="UTF-8" standalone="no"?>
<!DOCTYPE svg PUBLIC "-//W3C//DTD SVG 1.1//EN"
 "http://www.w3.org/Graphics/SVG/1.1/DTD/svg11.dtd">
<!-- Generated by graphviz version 2.40.1 (20161225.0304)
 -->
<!-- Title: G Pages: 1 -->
<svg width="254pt" height="152pt"
 viewBox="0.00 0.00 254.22 152.00" xmlns="http://www.w3.org/2000/svg" xmlns:xlink="http://www.w3.org/1999/xlink">
<g id="graph0" class="graph" transform="scale(1 1) rotate(0) translate(4 148)">
<title>G</title>
<polygon fill="#ffffff" stroke="transparent" points="-4,4 -4,-148 250.2153,-148 250.2153,4 -4,4"/>
<!-- A0 -->
<g id="node1" class="node">
<title>A0</title>
<g transform="translate(39.838,-69)" style="fill:none;stroke:black;stroke-width:1px"><circle cx="0" cy="-20" r="7.5" />
                <line x1="0" y1="-12.5" x2="0" y2="5" />
                <line x1="-15" y1="-5" x2="15" y2="-5" />
                <line x1="0" y1="5" x2="-15" y2="17" />
                <line x1="0" y1="5" x2="15" y2="17" /></g>
<text text-anchor="middle" x="39.838" y="-44" font-family="Helvetica,sans-Serif" font-size="10.00" fill="#000000">User</text>
</g>
<!-- A1 -->
<g id="node2" class="node">
<title>A1</title>
<ellipse fill="none" stroke="#000000" cx="187.9456" cy="-126" rx="45.4894" ry="18"/>
<text text-anchor="middle" x="187.9456" y="-123" font-family="Helvetica,sans-Serif" font-size="10.00" fill="#000000">Sign in/out</text>
</g>
<!-- A0&#45;&gt;A1 -->
<g id="edge1" class="edge">
<title>A0&#45;&gt;A1</title>
<path fill="none" stroke="#000000" d="M79.5281,-86.471C102.8347,-94.9686 131.9764,-105.5936 154.1756,-113.6874"/>
</g>
<!-- A2 -->
<g id="node3" class="node">
<title>A2</title>
<ellipse fill="none" stroke="#000000" cx="187.9456" cy="-72" rx="56.855" ry="18"/>
<text text-anchor="middle" x="187.9456" y="-69" font-family="Helvetica,sans-Serif" font-size="10.00" fill="#000000">Create reviews</text>
</g>
<!-- A0&#45;&gt;A2 -->
<g id="edge2" class="edge">
<title>A0&#45;&gt;A2</title>
<path fill="none" stroke="#000000" d="M79.5281,-72C95.2944,-72 113.7308,-72 130.882,-72"/>
</g>
<!-- A3 -->
<g id="node4" class="node">
<title>A3</title>
<ellipse fill="none" stroke="#000000" cx="187.9456" cy="-18" rx="58.0402" ry="18"/>
<text text-anchor="middle" x="187.9456" y="-15" font-family="Helvetica,sans-Serif" font-size="10.00" fill="#000000">Post comments</text>
</g>
<!-- A0&#45;&gt;A3 -->
<g id="edge3" class="edge">
<title>A0&#45;&gt;A3</title>
<path fill="none" stroke="#000000" d="M79.5281,-57.529C101.4638,-49.5313 128.5681,-39.649 150.1886,-31.7662"/>
</g>
</g>
</svg>
