<?xml version="1.0" encoding="UTF-8" standalone="no"?>
<!DOCTYPE svg PUBLIC "-//W3C//DTD SVG 1.1//EN"
 "http://www.w3.org/Graphics/SVG/1.1/DTD/svg11.dtd">
<!-- Generated by graphviz version 2.40.1 (20161225.0304)
 -->
<!-- Title: G Pages: 1 -->
<svg width="274pt" height="387pt"
 viewBox="0.00 0.00 274.32 386.63" xmlns="http://www.w3.org/2000/svg" xmlns:xlink="http://www.w3.org/1999/xlink">
<g id="graph0" class="graph" transform="scale(1 1) rotate(0) translate(4 382.6274)">
<title>G</title>
<polygon fill="#ffffff" stroke="transparent" points="-4,4 -4,-382.6274 270.3177,-382.6274 270.3177,4 -4,4"/>
<!-- A0 -->
<g id="node1" class="node">
<title>A0</title>
<g transform="translate(43.1715,-195.6274)" style="fill:none;stroke:black;stroke-width:1px"><circle cx="0" cy="-20" r="7.5" />
                <line x1="0" y1="-12.5" x2="0" y2="5" />
                <line x1="-15" y1="-5" x2="15" y2="-5" />
                <line x1="0" y1="5" x2="-15" y2="17" />
                <line x1="0" y1="5" x2="15" y2="17" /></g>
<text text-anchor="middle" x="43.1715" y="-170.6274" font-family="Helvetica,sans-Serif" font-size="10.00" fill="#000000">Visitor</text>
</g>
<!-- A1 -->
<g id="node2" class="node">
<title>A1</title>
<ellipse fill="none" stroke="#000000" cx="201.3304" cy="-360.6274" rx="37.4506" ry="18"/>
<text text-anchor="middle" x="201.3304" y="-357.6274" font-family="Helvetica,sans-Serif" font-size="10.00" fill="#000000">Sign up</text>
</g>
<!-- A0&#45;&gt;A1 -->
<g id="edge1" class="edge">
<title>A0&#45;&gt;A1</title>
<path fill="none" stroke="#000000" d="M60.6241,-234.7782C76.6791,-264.7508 103.0237,-306.6704 136.343,-333.6274 145.9362,-341.3888 158.0753,-347.2287 169.2583,-351.4551"/>
</g>
<!-- A2 -->
<g id="node3" class="node">
<title>A2</title>
<ellipse fill="none" stroke="#000000" cx="201.3304" cy="-306.6274" rx="35.4336" ry="18"/>
<text text-anchor="middle" x="201.3304" y="-303.6274" font-family="Helvetica,sans-Serif" font-size="10.00" fill="#000000">Sign in</text>
</g>
<!-- A0&#45;&gt;A2 -->
<g id="edge2" class="edge">
<title>A0&#45;&gt;A2</title>
<path fill="none" stroke="#000000" d="M79.0765,-234.6802C95.5523,-249.8996 115.9367,-266.9839 136.343,-279.6274 147.3518,-286.4483 160.3858,-292.2498 171.8806,-296.7065"/>
</g>
<!-- A3 -->
<g id="node4" class="node">
<title>A3</title>
<ellipse fill="none" stroke="#000000" cx="201.3304" cy="-252.6274" rx="53.0197" ry="18"/>
<text text-anchor="middle" x="201.3304" y="-249.6274" font-family="Helvetica,sans-Serif" font-size="10.00" fill="#000000">View the map</text>
</g>
<!-- A0&#45;&gt;A3 -->
<g id="edge3" class="edge">
<title>A0&#45;&gt;A3</title>
<path fill="none" stroke="#000000" d="M86.3891,-213.3832C110.6262,-221.6584 140.5654,-231.8805 163.8113,-239.8173"/>
</g>
<!-- A4 -->
<g id="node5" class="node">
<title>A4</title>
<ellipse fill="none" stroke="#000000" cx="201.3304" cy="-198.6274" rx="51.8271" ry="18"/>
<text text-anchor="middle" x="201.3304" y="-195.6274" font-family="Helvetica,sans-Serif" font-size="10.00" fill="#000000">View reviews</text>
</g>
<!-- A0&#45;&gt;A4 -->
<g id="edge4" class="edge">
<title>A0&#45;&gt;A4</title>
<path fill="none" stroke="#000000" d="M86.3891,-198.6274C105.7788,-198.6274 128.8178,-198.6274 149.1597,-198.6274"/>
</g>
<!-- A5 -->
<g id="node6" class="node">
<title>A5</title>
<ellipse fill="none" stroke="#000000" cx="201.3304" cy="-144.6274" rx="60.7167" ry="18"/>
<text text-anchor="middle" x="201.3304" y="-141.6274" font-family="Helvetica,sans-Serif" font-size="10.00" fill="#000000">Read comments</text>
</g>
<!-- A0&#45;&gt;A5 -->
<g id="edge5" class="edge">
<title>A0&#45;&gt;A5</title>
<path fill="none" stroke="#000000" d="M86.3891,-183.8717C109.8031,-175.8775 138.5384,-166.0664 161.4202,-158.2539"/>
</g>
<!-- A6 -->
<g id="node7" class="node">
<title>A6</title>
<ellipse fill="none" stroke="#000000" cx="201.3304" cy="-85.6274" rx="55.3247" ry="22.7556"/>
<text text-anchor="middle" x="201.3304" y="-88.6274" font-family="Helvetica,sans-Serif" font-size="10.00" fill="#000000">Search for</text>
<text text-anchor="middle" x="201.3304" y="-76.6274" font-family="Helvetica,sans-Serif" font-size="10.00" fill="#000000">restaurants</text>
</g>
<!-- A0&#45;&gt;A6 -->
<g id="edge6" class="edge">
<title>A0&#45;&gt;A6</title>
<path fill="none" stroke="#000000" d="M80.3592,-162.375C96.7436,-147.4683 116.7072,-130.6779 136.343,-117.6274 144.7221,-112.0584 154.2106,-106.8451 163.297,-102.3089"/>
</g>
<!-- A7 -->
<g id="node8" class="node">
<title>A7</title>
<ellipse fill="none" stroke="#000000" cx="201.3304" cy="-22.6274" rx="64.9747" ry="22.7556"/>
<text text-anchor="middle" x="201.3304" y="-25.6274" font-family="Helvetica,sans-Serif" font-size="10.00" fill="#000000">View top rated</text>
<text text-anchor="middle" x="201.3304" y="-13.6274" font-family="Helvetica,sans-Serif" font-size="10.00" fill="#000000">restaurants</text>
</g>
<!-- A0&#45;&gt;A7 -->
<g id="edge7" class="edge">
<title>A0&#45;&gt;A7</title>
<path fill="none" stroke="#000000" d="M59.2935,-162.4237C75.0773,-130.3783 101.7716,-84.0947 136.343,-53.6274 142.5326,-48.1726 149.8503,-43.4699 157.3029,-39.4941"/>
</g>
</g>
</svg>
