<?xml version="1.0" encoding="UTF-8" standalone="no"?>
<!DOCTYPE svg PUBLIC "-//W3C//DTD SVG 1.1//EN"
 "http://www.w3.org/Graphics/SVG/1.1/DTD/svg11.dtd">
<!-- Generated by graphviz version 2.40.1 (20161225.0304)
 -->
<!-- Title: G Pages: 1 -->
<svg width="247pt" height="458pt"
 viewBox="0.00 0.00 247.00 458.00" xmlns="http://www.w3.org/2000/svg" xmlns:xlink="http://www.w3.org/1999/xlink">
<g id="graph0" class="graph" transform="scale(1 1) rotate(0) translate(4 454)">
<title>G</title>
<polygon fill="#ffffff" stroke="transparent" points="-4,4 -4,-454 243,-454 243,4 -4,4"/>
<!-- A0 -->
<g id="node1" class="node">
<title>A0</title>
<polygon fill="none" stroke="#000000" points="143,-332 143,-364 239,-364 239,-332 143,-332"/>
<text text-anchor="start" x="180.4465" y="-345" font-family="Helvetica,sans-Serif" font-size="10.00" fill="#000000">User</text>
<polygon fill="none" stroke="#000000" points="143,-252 143,-332 239,-332 239,-252 143,-252"/>
<text text-anchor="start" x="162.661" y="-313" font-family="Helvetica,sans-Serif" font-size="10.00" fill="#000000">name: String</text>
<text text-anchor="start" x="152.9375" y="-289" font-family="Helvetica,sans-Serif" font-size="10.00" fill="#000000">username: String</text>
<text text-anchor="start" x="153.772" y="-265" font-family="Helvetica,sans-Serif" font-size="10.00" fill="#000000">password: String</text>
</g>
<!-- A2 -->
<g id="node3" class="node">
<title>A2</title>
<polygon fill="none" stroke="#000000" points="95,-170 95,-202 176,-202 176,-170 95,-170"/>
<text text-anchor="start" x="119.1125" y="-183" font-family="Helvetica,sans-Serif" font-size="10.00" fill="#000000">Review</text>
<polygon fill="none" stroke="#000000" points="95,-114 95,-170 176,-170 176,-114 95,-114"/>
<text text-anchor="start" x="104.6575" y="-151" font-family="Helvetica,sans-Serif" font-size="10.00" fill="#000000">rating: Integer</text>
<text text-anchor="start" x="111.6055" y="-127" font-family="Helvetica,sans-Serif" font-size="10.00" fill="#000000">text: String</text>
</g>
<!-- A0&#45;&gt;A2 -->
<g id="edge6" class="edge">
<title>A0&#45;&gt;A2</title>
<path fill="none" stroke="#000000" d="M169.9883,-251.7188C163.9054,-235.4251 157.3523,-217.8722 151.5805,-202.4119"/>
<text text-anchor="middle" x="165.8387" y="-213.437" font-family="Helvetica,sans-Serif" font-size="10.00" fill="#000000">*</text>
</g>
<!-- A3 -->
<g id="node4" class="node">
<title>A3</title>
<polygon fill="none" stroke="#000000" points="136,-32 136,-64 203,-64 203,-32 136,-32"/>
<text text-anchor="start" x="147.8335" y="-45" font-family="Helvetica,sans-Serif" font-size="10.00" fill="#000000">Comment</text>
<polygon fill="none" stroke="#000000" points="136,0 136,-32 203,-32 203,0 136,0"/>
<text text-anchor="start" x="145.6055" y="-13" font-family="Helvetica,sans-Serif" font-size="10.00" fill="#000000">text: String</text>
</g>
<!-- A0&#45;&gt;A3 -->
<g id="edge5" class="edge">
<title>A0&#45;&gt;A3</title>
<path fill="none" stroke="#000000" d="M191.6579,-251.7985C191.5266,-212.9749 190.1885,-160.211 185,-114 183.1389,-97.4239 179.7211,-79.193 176.5208,-64.139"/>
<text text-anchor="middle" x="188.5095" y="-77.1475" font-family="Helvetica,sans-Serif" font-size="10.00" fill="#000000">*</text>
</g>
<!-- A1 -->
<g id="node2" class="node">
<title>A1</title>
<polygon fill="none" stroke="#000000" points="13,-332 13,-364 113,-364 113,-332 13,-332"/>
<text text-anchor="start" x="38.5495" y="-345" font-family="Helvetica,sans-Serif" font-size="10.00" fill="#000000">Restaurant</text>
<polygon fill="none" stroke="#000000" points="13,-252 13,-332 113,-332 113,-252 13,-252"/>
<text text-anchor="start" x="34.661" y="-313" font-family="Helvetica,sans-Serif" font-size="10.00" fill="#000000">name: String</text>
<text text-anchor="start" x="22.9935" y="-289" font-family="Helvetica,sans-Serif" font-size="10.00" fill="#000000">description: String</text>
<text text-anchor="start" x="29.9375" y="-265" font-family="Helvetica,sans-Serif" font-size="10.00" fill="#000000">location: String</text>
</g>
<!-- A1&#45;&gt;A2 -->
<g id="edge3" class="edge">
<title>A1&#45;&gt;A2</title>
<path fill="none" stroke="#000000" d="M90.015,-251.7188C97.836,-235.4251 106.2613,-217.8722 113.6823,-202.4119"/>
<text text-anchor="middle" x="113.4585" y="-219.4107" font-family="Helvetica,sans-Serif" font-size="10.00" fill="#000000">*</text>
</g>
<!-- A4 -->
<g id="node5" class="node">
<title>A4</title>
<polygon fill="none" stroke="#000000" points="0,-158 0,-190 76,-190 76,-158 0,-158"/>
<text text-anchor="start" x="17.7185" y="-171" font-family="Helvetica,sans-Serif" font-size="10.00" fill="#000000">Category</text>
<polygon fill="none" stroke="#000000" points="0,-126 0,-158 76,-158 76,-126 0,-126"/>
<text text-anchor="start" x="9.661" y="-139" font-family="Helvetica,sans-Serif" font-size="10.00" fill="#000000">name: String</text>
</g>
<!-- A1&#45;&gt;A4 -->
<g id="edge2" class="edge">
<title>A1&#45;&gt;A4</title>
<path fill="none" stroke="#000000" d="M53.6198,-251.7188C50.156,-230.936 46.3508,-208.1046 43.3634,-190.1802"/>
<text text-anchor="middle" x="54.6807" y="-203.6702" font-family="Helvetica,sans-Serif" font-size="10.00" fill="#000000">*</text>
<text text-anchor="middle" x="42.3025" y="-232.2288" font-family="Helvetica,sans-Serif" font-size="10.00" fill="#000000">*</text>
</g>
<!-- A2&#45;&gt;A3 -->
<g id="edge4" class="edge">
<title>A2&#45;&gt;A3</title>
<path fill="none" stroke="#000000" d="M146.8916,-113.9313C151.296,-97.6091 156.2047,-79.4178 160.2759,-64.3305"/>
<text text-anchor="middle" x="163.7141" y="-81.0328" font-family="Helvetica,sans-Serif" font-size="10.00" fill="#000000">*</text>
</g>
<!-- A5 -->
<g id="node6" class="node">
<title>A5</title>
<polygon fill="none" stroke="#000000" points="219.336,-450 162.664,-450 162.664,-414 219.336,-414 219.336,-450"/>
<text text-anchor="middle" x="191" y="-429" font-family="Helvetica,sans-Serif" font-size="10.00" fill="#000000">Admin</text>
</g>
<!-- A5&#45;&gt;A0 -->
<g id="edge1" class="edge">
<title>A5&#45;&gt;A0</title>
<path fill="none" stroke="#000000" d="M191,-413.9693C191,-403.2725 191,-388.9781 191,-374.3588"/>
<polygon fill="none" stroke="#000000" points="194.5001,-374.2261 191,-364.2262 187.5001,-374.2262 194.5001,-374.2261"/>
</g>
</g>
</svg>
